# xmcd
#
# Track frame offsets:
#	150
#	18342
#	31322
#	45202
#	58845
#	72777
#	84602
#	97792
#	110857
#	124672
#	140310
#	152690
#	165592
#	181522
#	192922
#	205020
#	218602
#	234987
#	250467
#	265952
#
# Disc length: 3773 seconds
#
# Revision: 0
# Processed by: cddbd v1.5.1PL2 Copyright (c) Steve Scherf et al.
# Submitted via: dBpowerAMP V4.0
#
DISCID=040ebb14
DTITLE=Ansambel bratov Avsenik - Zvezde na nebu zare
DYEAR=1900
DGENRE=Country
TTITLE0=Zvezde na nebu zare
TTITLE1=Zimska pravljica
TTITLE2=Otroske zelje
TTITLE3=Prelepi zimski cas
TTITLE4=Zimski vecer
TTITLE5=Okoli novega leta
TTITLE6=Dedek mraz prihaja
TTITLE7=Druzinski praznik
TTITLE8=Koledarska polka
TTITLE9=Polnocni zvonovi
TTITLE10=Novoletni koledar
TTITLE11=S polko v novo leto
TTITLE12=Srecno novo leto
TTITLE13=Izlet na dezelo
TTITLE14=Pozdrav s Pohorja
TTITLE15=Ponocnjaki
TTITLE16=Na Gorjusah
TTITLE17=Prelep je svet
TTITLE18=Praznik prsuta in terana
TTITLE19=Domace veselje
EXTD=
EXTT0=
EXTT1=
EXTT2=
EXTT3=
EXTT4=
EXTT5=
EXTT6=
EXTT7=
EXTT8=
EXTT9=
EXTT10=
EXTT11=
EXTT12=
EXTT13=
EXTT14=
EXTT15=
EXTT16=
EXTT17=
EXTT18=
EXTT19=
PLAYORDER=
